<svg width="200" height="56" viewBox="0 0 200 56" fill="none" xmlns="http://www.w3.org/2000/svg">
<path d="M1.88565 54H0.237926L2.74858 46.7273H4.73011L7.23722 54H5.58949L3.76776 48.3892H3.71094L1.88565 54ZM1.78267 51.1413H5.67472V52.3416H1.78267V51.1413ZM9.8402 54.0888C9.4259 54.0888 9.05066 53.9822 8.71449 53.7692C8.38068 53.5537 8.11553 53.2377 7.91903 52.821C7.72491 52.402 7.62784 51.8883 7.62784 51.2798C7.62784 50.6548 7.72846 50.1352 7.92969 49.7209C8.13092 49.3042 8.39844 48.9929 8.73224 48.7869C9.06842 48.5786 9.43655 48.4744 9.83665 48.4744C10.142 48.4744 10.3965 48.5265 10.6001 48.6307C10.8061 48.7325 10.9718 48.8603 11.0973 49.0142C11.2251 49.1657 11.3222 49.3149 11.3885 49.4616H11.4347V46.7273H12.9439V54H11.4524V53.1264H11.3885C11.3175 53.2779 11.2169 53.4283 11.0866 53.5774C10.9588 53.7242 10.7919 53.8461 10.5859 53.9432C10.3823 54.0402 10.1338 54.0888 9.8402 54.0888ZM10.3196 52.8849C10.5634 52.8849 10.7694 52.8187 10.9375 52.6861C11.108 52.5511 11.2382 52.3629 11.3281 52.1214C11.4205 51.88 11.4666 51.5971 11.4666 51.2727C11.4666 50.9484 11.4216 50.6667 11.3317 50.4276C11.2417 50.1884 11.1115 50.0038 10.9411 49.8736C10.7706 49.7434 10.5634 49.6783 10.3196 49.6783C10.071 49.6783 9.86151 49.7457 9.69105 49.8807C9.5206 50.0156 9.39157 50.2027 9.30398 50.4418C9.21638 50.6809 9.17259 50.9579 9.17259 51.2727C9.17259 51.59 9.21638 51.8705 9.30398 52.1143C9.39394 52.3558 9.52296 52.5452 9.69105 52.6825C9.86151 52.8175 10.071 52.8849 10.3196 52.8849ZM14.1877 54V48.5455H15.6294V49.5078H15.6934C15.807 49.1882 15.9964 48.9361 16.2615 48.7514C16.5267 48.5668 16.8439 48.4744 17.2132 48.4744C17.5873 48.4744 17.9057 48.5679 18.1685 48.755C18.4313 48.9396 18.6065 49.1906 18.6941 49.5078H18.7509C18.8622 49.1953 19.0634 48.9455 19.3546 48.7585C19.6481 48.5691 19.995 48.4744 20.3951 48.4744C20.9041 48.4744 21.3172 48.6366 21.6344 48.9609C21.954 49.2829 22.1138 49.7398 22.1138 50.3317V54H20.6046V50.63C20.6046 50.3269 20.5241 50.0997 20.3631 49.9482C20.2021 49.7966 20.0009 49.7209 19.7594 49.7209C19.4848 49.7209 19.2705 49.8085 19.1167 49.9837C18.9628 50.1565 18.8858 50.3849 18.8858 50.669V54H17.4192V50.598C17.4192 50.3305 17.3423 50.1174 17.1884 49.9588C17.0369 49.8002 16.8368 49.7209 16.5882 49.7209C16.4202 49.7209 16.2686 49.7635 16.1337 49.8487C16.0011 49.9316 15.8958 50.0488 15.8176 50.2003C15.7395 50.3494 15.7005 50.5246 15.7005 50.7259V54H14.1877ZM23.3088 54V48.5455H24.8216V54H23.3088ZM24.0687 47.8423C23.8438 47.8423 23.6509 47.7678 23.4899 47.6186C23.3313 47.4671 23.252 47.286 23.252 47.0753C23.252 46.867 23.3313 46.6882 23.4899 46.5391C23.6509 46.3875 23.8438 46.3118 24.0687 46.3118C24.2936 46.3118 24.4854 46.3875 24.644 46.5391C24.805 46.6882 24.8855 46.867 24.8855 47.0753C24.8855 47.286 24.805 47.4671 24.644 47.6186C24.4854 47.7678 24.2936 47.8423 24.0687 47.8423ZM27.5462 50.8466V54H26.0334V48.5455H27.4751V49.5078H27.5391C27.6598 49.1906 27.8622 48.9396 28.1463 48.755C28.4304 48.5679 28.7749 48.4744 29.1797 48.4744C29.5585 48.4744 29.8887 48.5573 30.1705 48.723C30.4522 48.8887 30.6712 49.1255 30.8274 49.4332C30.9837 49.7386 31.0618 50.1032 31.0618 50.527V54H29.549V50.7969C29.5514 50.4631 29.4661 50.2027 29.2933 50.0156C29.1205 49.8262 28.8826 49.7315 28.5795 49.7315C28.3759 49.7315 28.196 49.7753 28.0398 49.8629C27.8859 49.9505 27.7652 50.0784 27.6776 50.2464C27.5923 50.4122 27.5485 50.6122 27.5462 50.8466ZM34.5969 54V46.7273H37.4663C38.0179 46.7273 38.4878 46.8326 38.8761 47.0433C39.2643 47.2517 39.5603 47.5417 39.7638 47.9134C39.9698 48.2827 40.0728 48.7088 40.0728 49.1918C40.0728 49.6747 39.9686 50.1009 39.7603 50.4702C39.552 50.8395 39.2501 51.1271 38.8548 51.3331C38.4618 51.5391 37.9859 51.642 37.4272 51.642H35.5984V50.4098H37.1786C37.4746 50.4098 37.7184 50.3589 37.9102 50.2571C38.1043 50.1529 38.2487 50.0097 38.3434 49.8274C38.4405 49.6428 38.489 49.4309 38.489 49.1918C38.489 48.9503 38.4405 48.7396 38.3434 48.5597C38.2487 48.3774 38.1043 48.2365 37.9102 48.1371C37.716 48.0353 37.4698 47.9844 37.1715 47.9844H36.1346V54H34.5969ZM42.4521 54.103C42.104 54.103 41.7939 54.0426 41.5217 53.9219C41.2494 53.7988 41.034 53.6177 40.8754 53.3786C40.7191 53.1371 40.641 52.8364 40.641 52.4766C40.641 52.1735 40.6966 51.919 40.8079 51.7131C40.9192 51.5071 41.0707 51.3414 41.2624 51.2159C41.4542 51.0904 41.672 50.9957 41.9158 50.9318C42.1621 50.8679 42.4201 50.8229 42.69 50.7969C43.0072 50.7637 43.2629 50.733 43.457 50.7045C43.6512 50.6738 43.792 50.6288 43.8796 50.5696C43.9672 50.5104 44.011 50.4228 44.011 50.3068V50.2855C44.011 50.0606 43.94 49.8866 43.7979 49.7635C43.6583 49.6404 43.4594 49.5788 43.2013 49.5788C42.9291 49.5788 42.7125 49.6392 42.5515 49.7599C42.3905 49.8783 42.284 50.0275 42.2319 50.2074L40.8327 50.0938C40.9038 49.7623 41.0434 49.4759 41.2518 49.2344C41.4601 48.9905 41.7288 48.8035 42.0579 48.6733C42.3893 48.5407 42.7728 48.4744 43.2085 48.4744C43.5115 48.4744 43.8015 48.5099 44.0785 48.581C44.3578 48.652 44.6052 48.7621 44.8207 48.9112C45.0385 49.0604 45.2101 49.2521 45.3356 49.4865C45.4611 49.7185 45.5238 49.9967 45.5238 50.321V54H44.0891V53.2436H44.0465C43.9589 53.4141 43.8417 53.5644 43.695 53.6946C43.5482 53.8224 43.3718 53.9231 43.1658 53.9964C42.9599 54.0675 42.7219 54.103 42.4521 54.103ZM42.8853 53.0589C43.1078 53.0589 43.3043 53.0152 43.4748 52.9276C43.6452 52.8376 43.779 52.7169 43.8761 52.5653C43.9731 52.4138 44.0217 52.2422 44.0217 52.0504V51.4716C43.9743 51.5024 43.9092 51.5308 43.8263 51.5568C43.7459 51.5805 43.6547 51.603 43.5529 51.6243C43.4511 51.6432 43.3493 51.661 43.2475 51.6776C43.1457 51.6918 43.0534 51.7048 42.9705 51.7166C42.793 51.7427 42.6379 51.7841 42.5053 51.8409C42.3728 51.8977 42.2698 51.9747 42.1964 52.0717C42.123 52.1664 42.0863 52.2848 42.0863 52.4268C42.0863 52.6328 42.1609 52.7902 42.31 52.8991C42.4615 53.0057 42.6533 53.0589 42.8853 53.0589ZM48.2102 50.8466V54H46.6974V48.5455H48.1392V49.5078H48.2031C48.3239 49.1906 48.5263 48.9396 48.8104 48.755C49.0945 48.5679 49.4389 48.4744 49.8438 48.4744C50.2225 48.4744 50.5528 48.5573 50.8345 48.723C51.1162 48.8887 51.3352 49.1255 51.4915 49.4332C51.6477 49.7386 51.7259 50.1032 51.7259 50.527V54H50.2131V50.7969C50.2154 50.4631 50.1302 50.2027 49.9574 50.0156C49.7846 49.8262 49.5466 49.7315 49.2436 49.7315C49.04 49.7315 48.8601 49.7753 48.7038 49.8629C48.55 49.9505 48.4292 50.0784 48.3416 50.2464C48.2564 50.4122 48.2126 50.6122 48.2102 50.8466ZM55.4039 54.1065C54.8429 54.1065 54.3599 53.9929 53.9551 53.7656C53.5526 53.536 53.2425 53.2116 53.0247 52.7926C52.8069 52.3712 52.698 51.8729 52.698 51.2976C52.698 50.7365 52.8069 50.2441 53.0247 49.8203C53.2425 49.3965 53.5491 49.0663 53.9444 48.8295C54.3422 48.5928 54.8085 48.4744 55.3436 48.4744C55.7034 48.4744 56.0384 48.5324 56.3485 48.6484C56.661 48.7621 56.9333 48.9337 57.1653 49.1634C57.3997 49.393 57.582 49.6818 57.7122 50.0298C57.8424 50.3755 57.9075 50.7803 57.9075 51.2443V51.6598H53.3017V50.7223H56.4835C56.4835 50.5045 56.4361 50.3116 56.3414 50.1435C56.2467 49.9754 56.1154 49.844 55.9473 49.7493C55.7815 49.6522 55.5886 49.6037 55.3684 49.6037C55.1388 49.6037 54.9352 49.657 54.7576 49.7635C54.5824 49.8677 54.4451 50.0085 54.3457 50.1861C54.2463 50.3613 54.1954 50.5566 54.193 50.772V51.6634C54.193 51.9332 54.2427 52.1664 54.3422 52.3629C54.444 52.5594 54.5872 52.7109 54.7718 52.8175C54.9565 52.924 55.1755 52.9773 55.4288 52.9773C55.5969 52.9773 55.7508 52.9536 55.8904 52.9062C56.0301 52.8589 56.1497 52.7879 56.2491 52.6932C56.3485 52.5985 56.4243 52.4825 56.4764 52.3452L57.8755 52.4375C57.8045 52.7737 57.6589 53.0672 57.4387 53.3182C57.2209 53.5668 56.9392 53.7609 56.5936 53.9006C56.2503 54.0379 55.8538 54.1065 55.4039 54.1065ZM60.4075 46.7273V54H58.8947V46.7273H60.4075Z" fill="black"/>
<path d="M52.3097 18.2756C52.196 17.1297 51.7083 16.2396 50.8466 15.6051C49.9848 14.9706 48.8153 14.6534 47.3381 14.6534C46.3343 14.6534 45.4867 14.7955 44.7955 15.0795C44.1042 15.3542 43.5739 15.7377 43.2045 16.2301C42.8447 16.7225 42.6648 17.2812 42.6648 17.9062C42.6458 18.4271 42.7547 18.8816 42.9915 19.2699C43.2377 19.6581 43.5739 19.9943 44 20.2784C44.4261 20.553 44.9186 20.7945 45.4773 21.0028C46.036 21.2017 46.6326 21.3722 47.267 21.5142L49.8807 22.1392C51.1496 22.4233 52.3144 22.8021 53.375 23.2756C54.4356 23.7491 55.3542 24.3314 56.1307 25.0227C56.9072 25.714 57.5085 26.5284 57.9347 27.4659C58.3703 28.4034 58.5928 29.4782 58.6023 30.6903C58.5928 32.4706 58.1383 34.0142 57.2386 35.321C56.3485 36.6184 55.0606 37.6269 53.375 38.3466C51.6989 39.0568 49.6771 39.4119 47.3097 39.4119C44.9612 39.4119 42.9157 39.0521 41.1733 38.3324C39.4403 37.6127 38.0862 36.5473 37.1108 35.1364C36.1449 33.7159 35.6383 31.9593 35.5909 29.8665H41.5426C41.6089 30.8419 41.8883 31.6562 42.3807 32.3097C42.8826 32.9536 43.5502 33.4413 44.3835 33.7727C45.2263 34.0947 46.178 34.2557 47.2386 34.2557C48.2803 34.2557 49.1847 34.1042 49.9517 33.8011C50.7282 33.4981 51.3295 33.0767 51.7557 32.5369C52.1818 31.9972 52.3949 31.3769 52.3949 30.6761C52.3949 30.0227 52.2008 29.4735 51.8125 29.0284C51.4337 28.5833 50.875 28.2045 50.1364 27.892C49.4072 27.5795 48.5123 27.2955 47.4517 27.0398L44.2841 26.2443C41.8314 25.6477 39.8949 24.715 38.4744 23.446C37.054 22.1771 36.3485 20.4678 36.358 18.3182C36.3485 16.5568 36.8172 15.018 37.7642 13.7017C38.7206 12.3854 40.0322 11.358 41.6989 10.6193C43.3655 9.88068 45.2595 9.51136 47.3807 9.51136C49.5398 9.51136 51.4242 9.88068 53.0341 10.6193C54.6534 11.358 55.9129 12.3854 56.8125 13.7017C57.7121 15.018 58.1761 16.5426 58.2045 18.2756H52.3097ZM68.6768 26.3864V39H62.6257V17.1818H68.3928V21.0312H68.6484C69.1314 19.7623 69.9411 18.7585 71.0774 18.0199C72.2138 17.2718 73.5916 16.8977 75.2109 16.8977C76.7261 16.8977 78.0471 17.2292 79.174 17.892C80.3009 18.5549 81.1768 19.5019 81.8018 20.733C82.4268 21.9545 82.7393 23.4129 82.7393 25.108V39H76.6882V26.1875C76.6977 24.8523 76.3568 23.8106 75.6655 23.0625C74.9742 22.3049 74.0225 21.9261 72.8104 21.9261C71.996 21.9261 71.2763 22.1013 70.6513 22.4517C70.0357 22.8021 69.5528 23.3134 69.2024 23.9858C68.8615 24.6487 68.6863 25.4489 68.6768 26.3864ZM93.7301 39.4119C92.3381 39.4119 91.0975 39.1705 90.0085 38.6875C88.9195 38.1951 88.0578 37.4706 87.4233 36.5142C86.7983 35.5483 86.4858 34.3456 86.4858 32.9062C86.4858 31.6941 86.7083 30.6761 87.1534 29.8523C87.5985 29.0284 88.2045 28.3655 88.9716 27.8636C89.7386 27.3617 90.6098 26.983 91.5852 26.7273C92.5701 26.4716 93.6023 26.2917 94.6818 26.1875C95.9508 26.0549 96.9735 25.9318 97.75 25.8182C98.5265 25.6951 99.09 25.5152 99.4403 25.2784C99.7907 25.0417 99.9659 24.6913 99.9659 24.2273V24.142C99.9659 23.2424 99.6818 22.5464 99.1136 22.054C98.5549 21.5616 97.7595 21.3153 96.7273 21.3153C95.6383 21.3153 94.7718 21.5568 94.1278 22.0398C93.4839 22.5133 93.0578 23.1098 92.8494 23.8295L87.2528 23.375C87.5369 22.0492 88.0956 20.9034 88.929 19.9375C89.7623 18.9621 90.8371 18.214 92.1534 17.6932C93.4792 17.1629 95.0133 16.8977 96.7557 16.8977C97.9678 16.8977 99.1278 17.0398 100.236 17.3239C101.353 17.608 102.343 18.0483 103.205 18.6449C104.076 19.2415 104.762 20.0085 105.264 20.946C105.766 21.8741 106.017 22.9867 106.017 24.2841V39H100.278V35.9744H100.108C99.7576 36.6562 99.2888 37.2576 98.7017 37.7784C98.1146 38.2898 97.4091 38.6922 96.5852 38.9858C95.7614 39.2699 94.8097 39.4119 93.7301 39.4119ZM95.4631 35.2358C96.3532 35.2358 97.1392 35.0606 97.821 34.7102C98.5028 34.3504 99.0379 33.8674 99.4261 33.2614C99.8144 32.6553 100.009 31.9687 100.009 31.2017V28.8864C99.8191 29.0095 99.5587 29.1231 99.2273 29.2273C98.9053 29.322 98.5407 29.4119 98.1335 29.4972C97.7263 29.5729 97.3191 29.6439 96.9119 29.7102C96.5047 29.767 96.1354 29.8191 95.804 29.8665C95.0938 29.9706 94.4735 30.1364 93.9432 30.3636C93.4129 30.5909 93.0009 30.8987 92.7074 31.2869C92.4138 31.6657 92.267 32.1392 92.267 32.7074C92.267 33.5312 92.5653 34.161 93.1619 34.5966C93.768 35.0227 94.535 35.2358 95.4631 35.2358ZM120.57 39.4261C118.335 39.4261 116.412 38.9527 114.803 38.0057C113.202 37.0492 111.971 35.7235 111.109 34.0284C110.257 32.3333 109.831 30.3826 109.831 28.1761C109.831 25.9413 110.262 23.9811 111.124 22.2955C111.995 20.6004 113.231 19.2794 114.831 18.3324C116.431 17.3759 118.335 16.8977 120.541 16.8977C122.445 16.8977 124.111 17.2434 125.541 17.9347C126.971 18.6259 128.103 19.5966 128.936 20.8466C129.769 22.0966 130.229 23.5644 130.314 25.25H124.604C124.443 24.161 124.017 23.285 123.325 22.6222C122.643 21.9498 121.749 21.6136 120.641 21.6136C119.703 21.6136 118.884 21.8693 118.183 22.3807C117.492 22.8826 116.952 23.6165 116.564 24.5824C116.176 25.5483 115.982 26.7178 115.982 28.0909C115.982 29.483 116.171 30.6667 116.55 31.642C116.938 32.6174 117.482 33.3608 118.183 33.8722C118.884 34.3835 119.703 34.6392 120.641 34.6392C121.332 34.6392 121.952 34.4972 122.501 34.2131C123.06 33.929 123.519 33.517 123.879 32.9773C124.249 32.428 124.49 31.7699 124.604 31.0028H130.314C130.219 32.6695 129.765 34.1373 128.95 35.4062C128.145 36.6657 127.033 37.6506 125.612 38.3608C124.192 39.071 122.511 39.4261 120.57 39.4261ZM139.671 32.7216L139.685 25.4631H140.566L147.555 17.1818H154.501L145.112 28.1477H143.677L139.671 32.7216ZM134.188 39V9.90909H140.239V39H134.188ZM147.825 39L141.404 29.4972L145.438 25.2216L154.913 39H147.825ZM163.521 9.90909V39H157.469V9.90909H163.521ZM172.104 47.1818C171.337 47.1818 170.617 47.1203 169.945 46.9972C169.282 46.8835 168.732 46.7367 168.297 46.5568L169.661 42.0398C170.371 42.2576 171.01 42.3759 171.578 42.3949C172.156 42.4138 172.653 42.2813 173.07 41.9972C173.496 41.7131 173.841 41.2301 174.107 40.5483L174.462 39.625L166.635 17.1818H172.999L177.516 33.2045H177.743L182.303 17.1818H188.709L180.229 41.358C179.821 42.5322 179.268 43.5549 178.567 44.4261C177.875 45.3068 177 45.9839 175.939 46.4574C174.878 46.9403 173.6 47.1818 172.104 47.1818ZM193.975 39.3693C193.038 39.3693 192.233 39.0379 191.56 38.375C190.897 37.7027 190.566 36.8977 190.566 35.9602C190.566 35.0322 190.897 34.2367 191.56 33.5739C192.233 32.911 193.038 32.5795 193.975 32.5795C194.884 32.5795 195.68 32.911 196.362 33.5739C197.043 34.2367 197.384 35.0322 197.384 35.9602C197.384 36.5852 197.223 37.1581 196.901 37.679C196.589 38.1903 196.177 38.6023 195.665 38.9148C195.154 39.2178 194.591 39.3693 193.975 39.3693Z" fill="#FF6347"/>
<path d="M23.2636 39H25.5273C26.6727 39 27.6136 38.1269 27.75 37.0082L30 14.5252H23.1818V9H20.4955V14.5252H13.7182L14.1273 17.7176C16.4591 18.3588 18.6409 19.5184 19.95 20.8008C21.9136 22.7381 23.2636 24.7435 23.2636 28.0177V39ZM0 37.6357V36.2851H20.4955V37.6357C20.4955 38.3861 19.8818 39 19.1182 39H1.37727C0.613636 39 0 38.3861 0 37.6357ZM20.4955 28.0859C20.4955 17.1719 0 17.1719 0 28.0859H20.4955ZM0.0272727 30.8281H20.4818V33.5566H0.0272727V30.8281Z" fill="#FF6347"/>
</svg>
