<svg width="200" height="48" viewBox="0 0 200 48" fill="none" xmlns="http://www.w3.org/2000/svg">
<path d="M52.3097 18.2756C52.196 17.1297 51.7083 16.2396 50.8466 15.6051C49.9848 14.9706 48.8153 14.6534 47.3381 14.6534C46.3343 14.6534 45.4867 14.7955 44.7955 15.0795C44.1042 15.3542 43.5739 15.7377 43.2045 16.2301C42.8447 16.7225 42.6648 17.2812 42.6648 17.9062C42.6458 18.4271 42.7547 18.8816 42.9915 19.2699C43.2377 19.6581 43.5739 19.9943 44 20.2784C44.4261 20.553 44.9186 20.7945 45.4773 21.0028C46.036 21.2017 46.6326 21.3722 47.267 21.5142L49.8807 22.1392C51.1496 22.4233 52.3144 22.8021 53.375 23.2756C54.4356 23.7491 55.3542 24.3314 56.1307 25.0227C56.9072 25.714 57.5085 26.5284 57.9347 27.4659C58.3703 28.4034 58.5928 29.4782 58.6023 30.6903C58.5928 32.4706 58.1383 34.0142 57.2386 35.321C56.3485 36.6184 55.0606 37.6269 53.375 38.3466C51.6989 39.0568 49.6771 39.4119 47.3097 39.4119C44.9612 39.4119 42.9157 39.0521 41.1733 38.3324C39.4403 37.6127 38.0862 36.5473 37.1108 35.1364C36.1449 33.7159 35.6383 31.9593 35.5909 29.8665H41.5426C41.6089 30.8419 41.8883 31.6562 42.3807 32.3097C42.8826 32.9536 43.5502 33.4413 44.3835 33.7727C45.2263 34.0947 46.178 34.2557 47.2386 34.2557C48.2803 34.2557 49.1847 34.1042 49.9517 33.8011C50.7282 33.4981 51.3295 33.0767 51.7557 32.5369C52.1818 31.9972 52.3949 31.3769 52.3949 30.6761C52.3949 30.0227 52.2008 29.4735 51.8125 29.0284C51.4337 28.5833 50.875 28.2045 50.1364 27.892C49.4072 27.5795 48.5123 27.2955 47.4517 27.0398L44.2841 26.2443C41.8314 25.6477 39.8949 24.715 38.4744 23.446C37.054 22.1771 36.3485 20.4678 36.358 18.3182C36.3485 16.5568 36.8172 15.018 37.7642 13.7017C38.7206 12.3854 40.0322 11.358 41.6989 10.6193C43.3655 9.88068 45.2595 9.51136 47.3807 9.51136C49.5398 9.51136 51.4242 9.88068 53.0341 10.6193C54.6534 11.358 55.9129 12.3854 56.8125 13.7017C57.7121 15.018 58.1761 16.5426 58.2045 18.2756H52.3097ZM68.6768 26.3864V39H62.6257V17.1818H68.3928V21.0312H68.6484C69.1314 19.7623 69.9411 18.7585 71.0774 18.0199C72.2138 17.2718 73.5916 16.8977 75.2109 16.8977C76.7261 16.8977 78.0471 17.2292 79.174 17.892C80.3009 18.5549 81.1768 19.5019 81.8018 20.733C82.4268 21.9545 82.7393 23.4129 82.7393 25.108V39H76.6882V26.1875C76.6977 24.8523 76.3568 23.8106 75.6655 23.0625C74.9742 22.3049 74.0225 21.9261 72.8104 21.9261C71.996 21.9261 71.2763 22.1013 70.6513 22.4517C70.0357 22.8021 69.5528 23.3134 69.2024 23.9858C68.8615 24.6487 68.6863 25.4489 68.6768 26.3864ZM93.7301 39.4119C92.3381 39.4119 91.0975 39.1705 90.0085 38.6875C88.9195 38.1951 88.0578 37.4706 87.4233 36.5142C86.7983 35.5483 86.4858 34.3456 86.4858 32.9062C86.4858 31.6941 86.7083 30.6761 87.1534 29.8523C87.5985 29.0284 88.2045 28.3655 88.9716 27.8636C89.7386 27.3617 90.6098 26.983 91.5852 26.7273C92.5701 26.4716 93.6023 26.2917 94.6818 26.1875C95.9508 26.0549 96.9735 25.9318 97.75 25.8182C98.5265 25.6951 99.09 25.5152 99.4403 25.2784C99.7907 25.0417 99.9659 24.6913 99.9659 24.2273V24.142C99.9659 23.2424 99.6818 22.5464 99.1136 22.054C98.5549 21.5616 97.7595 21.3153 96.7273 21.3153C95.6383 21.3153 94.7718 21.5568 94.1278 22.0398C93.4839 22.5133 93.0578 23.1098 92.8494 23.8295L87.2528 23.375C87.5369 22.0492 88.0956 20.9034 88.929 19.9375C89.7623 18.9621 90.8371 18.214 92.1534 17.6932C93.4792 17.1629 95.0133 16.8977 96.7557 16.8977C97.9678 16.8977 99.1278 17.0398 100.236 17.3239C101.353 17.608 102.343 18.0483 103.205 18.6449C104.076 19.2415 104.762 20.0085 105.264 20.946C105.766 21.8741 106.017 22.9867 106.017 24.2841V39H100.278V35.9744H100.108C99.7576 36.6562 99.2888 37.2576 98.7017 37.7784C98.1146 38.2898 97.4091 38.6922 96.5852 38.9858C95.7614 39.2699 94.8097 39.4119 93.7301 39.4119ZM95.4631 35.2358C96.3532 35.2358 97.1392 35.0606 97.821 34.7102C98.5028 34.3504 99.0379 33.8674 99.4261 33.2614C99.8144 32.6553 100.009 31.9687 100.009 31.2017V28.8864C99.8191 29.0095 99.5587 29.1231 99.2273 29.2273C98.9053 29.322 98.5407 29.4119 98.1335 29.4972C97.7263 29.5729 97.3191 29.6439 96.9119 29.7102C96.5047 29.767 96.1354 29.8191 95.804 29.8665C95.0938 29.9706 94.4735 30.1364 93.9432 30.3636C93.4129 30.5909 93.0009 30.8987 92.7074 31.2869C92.4138 31.6657 92.267 32.1392 92.267 32.7074C92.267 33.5312 92.5653 34.161 93.1619 34.5966C93.768 35.0227 94.535 35.2358 95.4631 35.2358ZM120.57 39.4261C118.335 39.4261 116.412 38.9527 114.803 38.0057C113.202 37.0492 111.971 35.7235 111.109 34.0284C110.257 32.3333 109.831 30.3826 109.831 28.1761C109.831 25.9413 110.262 23.9811 111.124 22.2955C111.995 20.6004 113.231 19.2794 114.831 18.3324C116.431 17.3759 118.335 16.8977 120.541 16.8977C122.445 16.8977 124.111 17.2434 125.541 17.9347C126.971 18.6259 128.103 19.5966 128.936 20.8466C129.769 22.0966 130.229 23.5644 130.314 25.25H124.604C124.443 24.161 124.017 23.285 123.325 22.6222C122.643 21.9498 121.749 21.6136 120.641 21.6136C119.703 21.6136 118.884 21.8693 118.183 22.3807C117.492 22.8826 116.952 23.6165 116.564 24.5824C116.176 25.5483 115.982 26.7178 115.982 28.0909C115.982 29.483 116.171 30.6667 116.55 31.642C116.938 32.6174 117.482 33.3608 118.183 33.8722C118.884 34.3835 119.703 34.6392 120.641 34.6392C121.332 34.6392 121.952 34.4972 122.501 34.2131C123.06 33.929 123.519 33.517 123.879 32.9773C124.249 32.428 124.49 31.7699 124.604 31.0028H130.314C130.219 32.6695 129.765 34.1373 128.95 35.4062C128.145 36.6657 127.033 37.6506 125.612 38.3608C124.192 39.071 122.511 39.4261 120.57 39.4261ZM139.671 32.7216L139.685 25.4631H140.566L147.555 17.1818H154.501L145.112 28.1477H143.677L139.671 32.7216ZM134.188 39V9.90909H140.239V39H134.188ZM147.825 39L141.404 29.4972L145.438 25.2216L154.913 39H147.825ZM163.521 9.90909V39H157.469V9.90909H163.521ZM172.104 47.1818C171.337 47.1818 170.617 47.1203 169.945 46.9972C169.282 46.8835 168.732 46.7367 168.297 46.5568L169.661 42.0398C170.371 42.2576 171.01 42.3759 171.578 42.3949C172.156 42.4138 172.653 42.2813 173.07 41.9972C173.496 41.7131 173.841 41.2301 174.107 40.5483L174.462 39.625L166.635 17.1818H172.999L177.516 33.2045H177.743L182.303 17.1818H188.709L180.229 41.358C179.821 42.5322 179.268 43.5549 178.567 44.4261C177.875 45.3068 177 45.9839 175.939 46.4574C174.878 46.9403 173.6 47.1818 172.104 47.1818ZM193.975 39.3693C193.038 39.3693 192.233 39.0379 191.56 38.375C190.897 37.7027 190.566 36.8977 190.566 35.9602C190.566 35.0322 190.897 34.2367 191.56 33.5739C192.233 32.911 193.038 32.5795 193.975 32.5795C194.884 32.5795 195.68 32.911 196.362 33.5739C197.043 34.2367 197.384 35.0322 197.384 35.9602C197.384 36.5852 197.223 37.1581 196.901 37.679C196.589 38.1903 196.177 38.6023 195.665 38.9148C195.154 39.2178 194.591 39.3693 193.975 39.3693Z" fill="#FF6347"/>
<path d="M23.2636 39H25.5273C26.6727 39 27.6136 38.1269 27.75 37.0082L30 14.5252H23.1818V9H20.4955V14.5252H13.7182L14.1273 17.7176C16.4591 18.3588 18.6409 19.5184 19.95 20.8008C21.9136 22.7381 23.2636 24.7435 23.2636 28.0177V39ZM0 37.6357V36.2851H20.4955V37.6357C20.4955 38.3861 19.8818 39 19.1182 39H1.37727C0.613636 39 0 38.3861 0 37.6357ZM20.4955 28.0859C20.4955 17.1719 0 17.1719 0 28.0859H20.4955ZM0.0272727 30.8281H20.4818V33.5566H0.0272727V30.8281Z" fill="#FF6347"/>
</svg>
